<svg width="17" height="17" viewBox="0 0 17 17" fill="none" xmlns="http://www.w3.org/2000/svg">
<path d="M3 8L3 9H0L0 8L3 8Z" fill="currentColor"/>
<path d="M17 8V9H14V8L17 8Z" fill="currentColor"/>
<path d="M9 17H8V14H9V17Z" fill="currentColor"/>
<path d="M9 3H8V0L9 0V3Z" fill="currentColor"/>
<path d="M16.9844 8C16.994 8.16546 17 8.33213 17 8.5C17 13.1944 13.1944 17 8.5 17C8.33213 17 8.16546 16.994 8 16.9844V15C8.16531 15.0109 8.33194 15 8.5 15C12.6421 15 15 12.6421 15 8.5C15 8.33194 15.0109 8.16531 15 8H16.9844ZM8.5 0C8.66785 0 8.83455 0.00505127 9 0.0146484V2C8.83469 1.98912 8.66806 2 8.5 2C4.35786 2 2 4.35786 2 8.5C2 8.66806 1.98912 8.83469 2 9H0.015625C0.00602566 8.83454 0 8.66787 0 8.5C0 3.80558 3.80558 0 8.5 0Z" fill="currentColor"/>
<path d="M10.5 8C10.7761 8 11 8.22386 11 8.5C11 8.77614 10.7761 9 10.5 9H6.5C6.22386 9 6 8.77614 6 8.5C6 8.22386 6.22386 8 6.5 8H10.5Z" fill="currentColor"/>
<path d="M9 10.5C9 10.7761 8.77614 11 8.5 11C8.22386 11 8 10.7761 8 10.5V6.5C8 6.22386 8.22386 6 8.5 6C8.77614 6 9 6.22386 9 6.5V10.5Z" fill="currentColor"/>
<path d="M2.04102 10.0234C2.6149 12.4635 4.53486 14.383 6.97461 14.957V17C3.4279 16.368 0.632067 13.5705 0 10.0234H2.04102ZM10.0234 0C13.5706 0.632055 16.368 3.42789 17 6.97461H14.957C14.383 4.53485 12.4635 2.61489 10.0234 2.04102V0Z" fill="currentColor"/>
</svg>
