<svg xmlns="http://www.w3.org/2000/svg" viewBox="0 0 42.67 42.67"><defs><style>.cls-1{fill:none;}.cls-2{fill:#fff;}</style></defs><title>icon-ws-symbol-w</title><g id="l_2" data-name="l 2"><g id="アイコン"><rect class="cls-1" width="42.67" height="42.67"/><path class="cls-2" d="M34,16.85c-4.6,0-6.5,1.74-8.57,4.54a13.68,13.68,0,0,0-2.07,7.06h-.9c0-3.2,1.46-6.39,2.91-9.14a10.16,10.16,0,0,0,1.46-4.26,12.15,12.15,0,0,0-1.91-5.55c-1.06-2-2.58-4.88-3.59-7.34-1,2.47-2.52,5.38-3.59,7.34a12.15,12.15,0,0,0-1.91,5.55,10.16,10.16,0,0,0,1.46,4.26c1.46,2.75,2.91,5.94,2.91,9.14h-.9a13.68,13.68,0,0,0-2.07-7.06c-2.07-2.8-4-4.54-8.57-4.54-3.14,0-5.6,2.92-5.6,6.05a9.83,9.83,0,0,0,4.2,7.79c0-3.7,1.51-6,5.6-6,2.58,0,4.43,1.85,4.43,3.76a2.24,2.24,0,0,0-2.41,2.19,4.65,4.65,0,0,1,2.41-.84,6,6,0,0,1-1.51,4c-.22-1.12-.67-2-1.57-2a2.4,2.4,0,0,0-2.07,2.47,2.17,2.17,0,0,0,2.13,2.41c2.24,0,4.6-2.86,4.82-6.89h1.12a9.37,9.37,0,0,1-.45,3.36,5.33,5.33,0,0,0-.45,1.74,26.92,26.92,0,0,0,2,5.6,26.92,26.92,0,0,0,2-5.6,5.33,5.33,0,0,0-.45-1.74,9.37,9.37,0,0,1-.45-3.36h1.12c.22,4,2.58,6.89,4.82,6.89a2.17,2.17,0,0,0,2.13-2.41,2.4,2.4,0,0,0-2.07-2.47c-.9,0-1.34.9-1.57,2a6,6,0,0,1-1.51-4,4.65,4.65,0,0,1,2.41.84,2.24,2.24,0,0,0-2.41-2.19c0-1.91,1.85-3.76,4.43-3.76,4.09,0,5.6,2.3,5.6,6a9.83,9.83,0,0,0,4.2-7.79C39.6,19.76,37.14,16.85,34,16.85Z"/></g></g></svg>